<?xml version="1.0" standalone="no"?>
<!DOCTYPE svg PUBLIC "-//W3C//DTD SVG 20010904//EN"
 "http://www.w3.org/TR/2001/REC-SVG-20010904/DTD/svg10.dtd">
<svg version="1.0" xmlns="http://www.w3.org/2000/svg"
 width="200.000000pt" height="200.000000pt" viewBox="0 0 200.000000 200.000000"
 preserveAspectRatio="xMidYMid meet">

<g transform="translate(0.000000,200.000000) scale(0.100000,-0.100000)"
fill="#000000" stroke="none">
<path d="M711 1559 l-31 -31 2 -396 3 -397 27 -9 c22 -8 32 -6 48 9 19 18 20
29 20 387 l0 368 194 0 c210 0 226 4 226 54 0 44 -12 46 -241 46 l-217 0 -31
-31z"/>
<path d="M1283 1444 c-27 -14 -64 -71 -223 -345 -167 -289 -190 -335 -190
-373 0 -31 6 -50 23 -68 12 -13 101 -69 196 -123 187 -107 218 -116 268 -79
43 32 403 660 403 702 0 65 -18 82 -216 195 -103 59 -197 107 -208 107 -12 0
-35 -8 -53 -16z m215 -185 c86 -50 158 -92 160 -94 4 -4 -337 -596 -353 -614
-11 -11 -38 1 -167 74 -84 49 -157 92 -162 96 -9 8 343 629 357 629 4 0 79
-41 165 -91z"/>
<path d="M400 1295 c-69 -41 -133 -84 -142 -96 -11 -12 -18 -38 -18 -61 0 -34
29 -91 182 -356 100 -175 195 -329 209 -344 44 -45 97 -39 182 17 71 48 84 76
51 109 -23 23 -43 20 -104 -19 -29 -19 -57 -32 -61 -27 -8 7 -359 613 -359
618 0 1 54 35 120 74 91 53 121 77 126 96 7 28 -18 64 -45 64 -9 0 -72 -34
-141 -75z"/>
</g>
</svg>
